<?xml version="1.0" encoding="utf-8"?>
<!-- Generator: Adobe Illustrator 27.4.1, SVG Export Plug-In . SVG Version: 6.00 Build 0)  -->
<svg version="1.1" id="Layer_1" xmlns="http://www.w3.org/2000/svg" xmlns:xlink="http://www.w3.org/1999/xlink" x="0px" y="0px"
	 viewBox="0 0 256 256" style="enable-background:new 0 0 256 256;" xml:space="preserve">
<style type="text/css">
	.st0{fill:#008080;}
</style>
<g>
	<path class="st0" d="M230.2,26.5l-0.7-0.7C212.3,8.6,186.4,5.5,166,16.3c-6-6-15.8-6-21.7,0l-22.5,22.5c-5.4,5.4-5.9,13.9-1.6,19.9
		l-61.4,61.4c-6-4.4-14.5-3.9-19.9,1.6l-22.5,22.5c-6,6-6,15.7,0,21.7c-10.8,20.4-7.7,46.3,9.6,63.5l0.7,0.7
		c17.2,17.2,43.1,20.4,63.5,9.6c6,6,15.8,6,21.7,0l22.5-22.5c5.4-5.4,5.9-13.9,1.6-19.9l61.4-61.4c6,4.4,14.5,3.9,19.9-1.6
		l22.5-22.5c6-6,6-15.7,0-21.7C250.5,69.6,247.4,43.7,230.2,26.5z M127.1,210l-22.5,22.5c-2,2-5.3,2-7.3,0L80.8,216
		c-2-2-2-5.3,0-7.3l6.1-6.1l-33.5-33.5l-6.1,6.1c-2,2-5.3,2-7.3,0l-16.5-16.5c-2-2-2-5.3,0-7.3L46,128.9c2-2,5.3-2,7.3,0l16.5,16.5
		c2,2,2,5.3,0,7.3l-6.2,6.2l5.5,5.5c6.3-4.8,15.3-4.4,21,1.4c5.8,5.8,6.2,14.8,1.4,21l5.5,5.5l6.2-6.2c2-2,5.3-2,7.3,0l16.5,16.5
		C129.1,204.7,129.1,208,127.1,210z M232.5,104.6L210,127.1c-2,2-5.3,2-7.3,0l-16.5-16.5c-2-2-2-5.3,0-7.3l6.2-6.2l-5.5-5.5
		c-6.3,4.8-15.3,4.4-21-1.4c-5.8-5.8-6.2-14.8-1.4-21l-5.5-5.5l-6.2,6.2c-2,2-5.3,2-7.3,0L129,53.4c-2-2-2-5.3,0-7.3l22.5-22.5
		c2-2,5.3-2,7.3,0L175.2,40c2,2,2,5.3,0,7.3l-6.1,6.1l33.5,33.5l6.1-6.1c2-2,5.3-2,7.3,0l16.5,16.5
		C234.5,99.3,234.5,102.6,232.5,104.6z"/>
	<path class="st0" d="M180.9,70.2c-0.7-0.7-1.7-1-2.7-0.7l-6.7,1.8c-1,0.3-1.7,1-2,2l-1.8,6.7c-0.3,1,0,2,0.7,2.7l4.9,4.9
		c0.7,0.7,1.7,1,2.7,0.7l6.7-1.8c1-0.3,1.7-1,2-2l1.8-6.7c0.3-1,0-2-0.7-2.7L180.9,70.2z M179.8,81.6l-3.6,1l-2.6-2.6l1-3.6l3.6-1
		l2.6,2.6L179.8,81.6z"/>
	<path class="st0" d="M82.7,168.4c-0.7-0.7-1.7-1-2.7-0.7l-6.7,1.8c-1,0.3-1.7,1-2,2l-1.8,6.7c-0.3,1,0,2,0.7,2.7l4.9,4.9
		c0.7,0.7,1.7,1,2.7,0.7l6.7-1.8c1-0.3,1.7-1,2-2l1.8-6.7c0.3-1,0-2-0.7-2.7L82.7,168.4z M81.5,179.8l-3.6,1l-2.6-2.6l1-3.6l3.6-1
		l2.6,2.6L81.5,179.8z"/>
</g>
</svg>
